RobotoSerifText-HairlineCond 02r.ufo
<glyph name="parenleft" format="2">
  <advance width="256"/>
  <unicode hex="0028"/>
  <outline>
    <contour>
      <point x="85" y="310" type="curve" smooth="yes"/>
      <point x="85" y="106"/>
      <point x="161" y="-48"/>
      <point x="238" y="-127" type="curve"/>
      <point x="238" y="-130" type="line"/>
      <point x="207" y="-130" type="line"/>
      <point x="122" y="-53"/>
      <point x="47" y="110"/>
      <point x="47" y="310" type="curve" smooth="yes"/>
      <point x="47" y="510"/>
      <point x="122" y="673"/>
      <point x="207" y="750" type="curve"/>
      <point x="238" y="750" type="line"/>
      <point x="238" y="747" type="line"/>
      <point x="161" y="668"/>
      <point x="85" y="514"/>
    </contour>
  </outline>
</glyph>
<glyph name="four" format="2">
  <advance width="452"/>
  <unicode hex="0034"/>
  <outline>
    <contour>
      <point x="34" y="112" type="line"/>
      <point x="440" y="112" type="line"/>
      <point x="440" y="145" type="line"/>
      <point x="51" y="145" type="line"/>
      <point x="54" y="123" type="line"/>
      <point x="309" y="606" type="line"/>
      <point x="321" y="609" type="line"/>
      <point x="281" y="609" type="line"/>
      <point x="34" y="148" type="line"/>
    </contour>
    <contour>
      <point x="335" y="-77" type="line"/>
      <point x="335" y="609" type="line"/>
      <point x="298" y="609" type="line"/>
      <point x="297" y="596" type="line"/>
      <point x="297" y="-77" type="line"/>
    </contour>
  </outline>
</glyph>
<glyph name="A" format="2">
  <advance width="554"/>
  <unicode hex="0041"/>
  <guideline x="298" y="710" angle="284.66838897733544" identifier="F9IyxFDZl4"/>
  <anchor x="279" y="721" name="top"/>
  <anchor x="478" y="0" name="right"/>
  <anchor x="279" y="0" name="bottom"/>
  <outline>
    <contour>
      <point x="149" y="293" type="line"/>
      <point x="149" y="263" type="line"/>
      <point x="402" y="263" type="line"/>
      <point x="402" y="293" type="line"/>
    </contour>
    <contour>
      <point x="265" y="706" type="line"/>
      <point x="437" y="39" type="line"/>
      <point x="437" y="32"/>
      <point x="400" y="29"/>
      <point x="369" y="29" type="curve" smooth="yes"/>
      <point x="356" y="29" type="line"/>
      <point x="356" y="0" type="line"/>
      <point x="530" y="0" type="line"/>
      <point x="530" y="29" type="line"/>
      <point x="526" y="29" type="line"/>
      <point x="499" y="29"/>
      <point x="481" y="31"/>
      <point x="474" y="57" type="curve" smooth="yes"/>
      <point x="303" y="710" type="line"/>
      <point x="251" y="710" type="line"/>
      <point x="84" y="72" type="line" smooth="yes"/>
      <point x="74" y="35"/>
      <point x="56" y="29"/>
      <point x="27" y="29" type="curve"/>
      <point x="23" y="29" type="line"/>
      <point x="24" y="0" type="line"/>
      <point x="191" y="0" type="line"/>
      <point x="191" y="29" type="line"/>
      <point x="180" y="29" type="line" smooth="yes"/>
      <point x="149" y="29"/>
      <point x="113" y="36"/>
      <point x="113" y="47" type="curve"/>
      <point x="280" y="696" type="line"/>
    </contour>
  </outline>
</glyph>
<glyph name="B" format="2">
  <advance width="507"/>
  <unicode hex="0042"/>
  <outline>
    <contour>
      <point x="272" y="710" type="curve" smooth="yes"/>
      <point x="37" y="710" type="line"/>
      <point x="37" y="681" type="line"/>
      <point x="45" y="681" type="line" smooth="yes"/>
      <point x="85" y="681"/>
      <point x="114" y="674"/>
      <point x="114" y="645" type="curve" smooth="yes"/>
      <point x="114" y="65" type="line" smooth="yes"/>
      <point x="114" y="36"/>
      <point x="85" y="29"/>
      <point x="45" y="29" type="curve" smooth="yes"/>
      <point x="37" y="29" type="line"/>
      <point x="37" y="0" type="line"/>
      <point x="280" y="0" type="line" smooth="yes"/>
      <point x="395" y="0"/>
      <point x="464" y="68"/>
      <point x="464" y="191" type="curve" smooth="yes"/>
      <point x="464" y="299"/>
      <point x="401" y="369"/>
      <point x="302" y="380" type="curve"/>
      <point x="308" y="365" type="line"/>
      <point x="308" y="383" type="line"/>
      <point x="301" y="366" type="line"/>
      <point x="385" y="384"/>
      <point x="439" y="446"/>
      <point x="439" y="539" type="curve" smooth="yes"/>
      <point x="439" y="648"/>
      <point x="376" y="710"/>
    </contour>
    <contour>
      <point x="143" y="387" type="line"/>
      <point x="143" y="357" type="line"/>
      <point x="264" y="357" type="line" smooth="yes"/>
      <point x="369" y="357"/>
      <point x="422" y="294"/>
      <point x="422" y="192" type="curve" smooth="yes"/>
      <point x="422" y="82"/>
      <point x="373" y="30"/>
      <point x="280" y="30" type="curve" smooth="yes"/>
      <point x="152" y="30" type="line"/>
      <point x="152" y="680" type="line"/>
      <point x="272" y="680" type="line" smooth="yes"/>
      <point x="356" y="680"/>
      <point x="399" y="634"/>
      <point x="399" y="538" type="curve" smooth="yes"/>
      <point x="399" y="445"/>
      <point x="353" y="387"/>
      <point x="258" y="387" type="curve" smooth="yes"/>
    </contour>
  </outline>
</glyph>
<glyph name="F" format="2">
  <advance width="472"/>
  <unicode hex="0046"/>
  <outline>
    <contour>
      <point x="152" y="680" type="line"/>
      <point x="289" y="680" type="line" smooth="yes"/>
      <point x="370" y="680"/>
      <point x="387" y="671"/>
      <point x="390" y="637" type="curve" smooth="yes"/>
      <point x="397" y="548" type="line"/>
      <point x="421" y="548" type="line"/>
      <point x="421" y="710" type="line"/>
      <point x="37" y="710" type="line"/>
      <point x="37" y="681" type="line"/>
      <point x="45" y="681" type="line" smooth="yes"/>
      <point x="85" y="681"/>
      <point x="114" y="674"/>
      <point x="114" y="645" type="curve" smooth="yes"/>
      <point x="114" y="65" type="line" smooth="yes"/>
      <point x="114" y="36"/>
      <point x="85" y="29"/>
      <point x="45" y="29" type="curve" smooth="yes"/>
      <point x="37" y="29" type="line"/>
      <point x="37" y="0" type="line"/>
      <point x="242" y="0" type="line"/>
      <point x="242" y="29" type="line"/>
      <point x="228" y="29" type="line" smooth="yes"/>
      <point x="193" y="29"/>
      <point x="152" y="30"/>
      <point x="152" y="65" type="curve" smooth="yes"/>
    </contour>
    <contour>
      <point x="139" y="370" type="curve"/>
      <point x="139" y="344" type="line"/>
      <point x="211" y="343"/>
      <point x="284" y="341"/>
      <point x="357" y="340" type="curve"/>
      <point x="357" y="374" type="line"/>
      <point x="284" y="372"/>
      <point x="211" y="371"/>
    </contour>
  </outline>
</glyph>
<glyph name="G" format="2">
  <advance width="580"/>
  <unicode hex="0047"/>
  <anchor x="304" y="741" name="top"/>
  <anchor x="304" y="0" name="bottom"/>
  <outline>
    <contour>
      <point x="496" y="288" type="line" smooth="yes"/>
      <point x="496" y="317.0"/>
      <point x="524.983606557377" y="324"/>
      <point x="564" y="324" type="curve" smooth="yes"/>
      <point x="567" y="324" type="line"/>
      <point x="567" y="353" type="line"/>
      <point x="385" y="353" type="line"/>
      <point x="385" y="324" type="line"/>
      <point x="394" y="324" type="line" smooth="yes"/>
      <point x="433" y="324"/>
      <point x="462" y="317"/>
      <point x="462" y="288" type="curve" smooth="yes"/>
      <point x="462" y="81" type="line"/>
      <point x="418.07559393371537" y="41.95608349663589"/>
      <point x="365.3641975308642" y="19.0"/>
      <point x="307.0" y="19.0" type="curve" smooth="yes"/>
      <point x="161" y="19"/>
      <point x="88" y="131"/>
      <point x="88" y="355" type="curve" smooth="yes"/>
      <point x="88" y="578"/>
      <point x="159" y="692"/>
      <point x="298" y="692" type="curve" smooth="yes"/>
      <point x="383.48022598870057" y="692.0"/>
      <point x="438.0643773800857" y="630.7339068289789"/>
      <point x="468" y="507" type="curve"/>
      <point x="498" y="507" type="line"/>
      <point x="498" y="710" type="line"/>
      <point x="473" y="710" type="line"/>
      <point x="463" y="548" type="line"/>
      <point x="476" y="562" type="line"/>
      <point x="452" y="658"/>
      <point x="399" y="720.0"/>
      <point x="300" y="720.0" type="curve" smooth="yes"/>
      <point x="136" y="720"/>
      <point x="47" y="594"/>
      <point x="47" y="355" type="curve" smooth="yes"/>
      <point x="47" y="119"/>
      <point x="139" y="-10"/>
      <point x="307.0" y="-10.0" type="curve" smooth="yes"/>
      <point x="378.35714285714283" y="-10.0"/>
      <point x="455.6262505567895" y="24.717896979734284"/>
      <point x="496" y="71" type="curve"/>
    </contour>
  </outline>
</glyph>
<glyph name="N" format="2">
  <advance width="616"/>
  <unicode hex="004E"/>
  <guideline x="168" y="710" angle="295.0480736395709" identifier="tbDkYEdcks"/>
  <anchor x="317" y="741" name="top"/>
  <anchor x="317" y="0" name="bottom"/>
  <outline>
    <contour>
      <point x="37" y="0" type="line"/>
      <point x="233" y="0" type="line"/>
      <point x="233" y="29" type="line"/>
      <point x="223" y="29" type="line" smooth="yes"/>
      <point x="188" y="29"/>
      <point x="148" y="37"/>
      <point x="148" y="44" type="curve" smooth="yes"/>
      <point x="148" y="697" type="line"/>
      <point x="132" y="704" type="line"/>
      <point x="459" y="0" type="line"/>
      <point x="502" y="0" type="line"/>
      <point x="502" y="640" type="line" smooth="yes"/>
      <point x="502" y="669"/>
      <point x="531" y="681"/>
      <point x="571" y="681" type="curve" smooth="yes"/>
      <point x="580" y="681" type="line"/>
      <point x="580" y="710" type="line"/>
      <point x="383" y="710" type="line"/>
      <point x="383" y="681" type="line"/>
      <point x="394" y="681" type="line" smooth="yes"/>
      <point x="429" y="681"/>
      <point x="468" y="673"/>
      <point x="468" y="666" type="curve" smooth="yes"/>
      <point x="468" y="34" type="line"/>
      <point x="479" y="44" type="line"/>
      <point x="170" y="710" type="line"/>
      <point x="37" y="710" type="line"/>
      <point x="37" y="681" type="line"/>
      <point x="45" y="681" type="line" smooth="yes"/>
      <point x="85" y="681"/>
      <point x="114" y="674"/>
      <point x="114" y="645" type="curve" smooth="yes"/>
      <point x="114" y="70" type="line" smooth="yes"/>
      <point x="114" y="41"/>
      <point x="85" y="29"/>
      <point x="45" y="29" type="curve" smooth="yes"/>
      <point x="37" y="29" type="line"/>
    </contour>
  </outline>
</glyph>
<glyph name="P" format="2">
  <advance width="492"/>
  <unicode hex="0050"/>
  <outline>
    <contour>
      <point x="152" y="39" type="line"/>
      <point x="152" y="32"/>
      <point x="187" y="29"/>
      <point x="214" y="29" type="curve" smooth="yes"/>
      <point x="236" y="29" type="line"/>
      <point x="236" y="0" type="line"/>
      <point x="37" y="0" type="line"/>
      <point x="37" y="29" type="line"/>
      <point x="45" y="29" type="line" smooth="yes"/>
      <point x="85" y="29"/>
      <point x="114" y="36"/>
      <point x="114" y="65" type="curve" smooth="yes"/>
      <point x="114" y="645" type="line" smooth="yes"/>
      <point x="114" y="674"/>
      <point x="85" y="681"/>
      <point x="45" y="681" type="curve" smooth="yes"/>
      <point x="37" y="681" type="line"/>
      <point x="37" y="710" type="line"/>
      <point x="261" y="710" type="line" smooth="yes"/>
      <point x="395" y="710"/>
      <point x="464" y="632"/>
      <point x="464" y="508" type="curve" smooth="yes"/>
      <point x="464" y="385"/>
      <point x="392" y="300"/>
      <point x="257" y="300" type="curve" smooth="yes"/>
      <point x="135" y="300" type="line"/>
      <point x="135" y="328" type="line"/>
      <point x="257" y="328" type="line" smooth="yes"/>
      <point x="372" y="328"/>
      <point x="423" y="399"/>
      <point x="423" y="507" type="curve" smooth="yes"/>
      <point x="423" y="618"/>
      <point x="371" y="681"/>
      <point x="261" y="681" type="curve" smooth="yes"/>
      <point x="152" y="681" type="line"/>
    </contour>
  </outline>
</glyph>
<glyph name="U" format="2">
  <advance width="625"/>
  <unicode hex="0055"/>
  <anchor x="317" y="741" name="top"/>
  <anchor x="370" y="0" name="right"/>
  <anchor x="317" y="0" name="bottom"/>
  <outline>
    <contour>
      <point x="150" y="241" type="curve" smooth="yes"/>
      <point x="150" y="671" type="line" smooth="yes"/>
      <point x="150" y="678"/>
      <point x="189" y="681"/>
      <point x="220" y="681" type="curve" smooth="yes"/>
      <point x="227" y="681" type="line"/>
      <point x="227" y="710" type="line"/>
      <point x="34" y="710" type="line"/>
      <point x="34" y="681" type="line"/>
      <point x="43" y="681" type="line" smooth="yes"/>
      <point x="83" y="681"/>
      <point x="112" y="674"/>
      <point x="112" y="645" type="curve" smooth="yes"/>
      <point x="112" y="241" type="line" smooth="yes"/>
      <point x="112" y="59.672597864768676"/>
      <point x="195.0" y="-10.0"/>
      <point x="313" y="-10" type="curve" smooth="yes"/>
      <point x="426.0" y="-10.0"/>
      <point x="513" y="60.56583629893237"/>
      <point x="513" y="241" type="curve" smooth="yes"/>
      <point x="513" y="635" type="line" smooth="yes"/>
      <point x="513" y="669"/>
      <point x="542" y="681"/>
      <point x="582" y="681" type="curve" smooth="yes"/>
      <point x="591" y="681" type="line"/>
      <point x="591" y="710" type="line"/>
      <point x="402" y="710" type="line"/>
      <point x="402" y="681" type="line"/>
      <point x="409" y="681" type="line" smooth="yes"/>
      <point x="440" y="681"/>
      <point x="479" y="673"/>
      <point x="479" y="659" type="curve" smooth="yes"/>
      <point x="479" y="241" type="line" smooth="yes"/>
      <point x="479" y="89"/>
      <point x="413.0" y="20.0"/>
      <point x="317" y="20" type="curve" smooth="yes"/>
      <point x="221.0" y="20.0"/>
      <point x="150" y="77.40963855421688"/>
    </contour>
  </outline>
</glyph>
<glyph name="e" format="2">
  <advance width="417"/>
  <unicode hex="0065"/>
  <anchor x="213" y="508" name="top"/>
  <anchor x="359" y="1" name="right"/>
  <anchor x="233" y="0" name="bottom"/>
  <outline>
    <contour>
      <point x="217" y="-10" type="curve" smooth="yes" identifier="PIV6Aaw5nP"/>
      <point x="293" y="-10" identifier="sXL4trSBnv"/>
      <point x="341" y="27" identifier="iFHc7dcWbC"/>
      <point x="377" y="107" type="curve" identifier="YDBm4CKper"/>
      <point x="352" y="119" type="line" identifier="jgbNPZNfse"/>
      <point x="320" y="49" identifier="IK6mkmjuLC"/>
      <point x="281" y="19" identifier="pQuuOI8pbo"/>
      <point x="218" y="19" type="curve" smooth="yes" identifier="p2KdjYf2xA"/>
      <point x="126.0" y="19" identifier="4AKdDvc3pP"/>
      <point x="75" y="83" identifier="j55698bl3n"/>
      <point x="75" y="250" type="curve" identifier="vQP8IuGGKA"/>
      <point x="75" y="418" identifier="IbiKp5X5Nf"/>
      <point x="124" y="488" identifier="Q7dRh0xX6p"/>
      <point x="215" y="488" type="curve" smooth="yes" identifier="lE92joXvBi"/>
      <point x="302" y="488" identifier="HI0RRMQS47"/>
      <point x="339" y="430" identifier="cZmR2pTmhZ"/>
      <point x="342" y="265" type="curve" identifier="QzXXBa0WJa"/>
      <point x="356" y="281" type="line" identifier="QMkSBWGSYb"/>
      <point x="61" y="281" type="line" identifier="KD0oi9iy3T"/>
      <point x="61" y="252" type="line" identifier="BFaGsAsqWX"/>
      <point x="382" y="252" type="line" identifier="xc2pZYrdw4"/>
      <point x="381" y="438" identifier="6Jm4CMo7yd"/>
      <point x="328" y="518" identifier="H2v15TlGeY"/>
      <point x="216" y="518" type="curve" smooth="yes" identifier="EYiDZO35Fz"/>
      <point x="102.0" y="518.0" identifier="e430ytWvId"/>
      <point x="36" y="429" identifier="B6KwEzOVMv"/>
      <point x="36" y="252" type="curve" identifier="fCoWPJSjk2"/>
      <point x="36" y="70" identifier="oiveMICk8e"/>
      <point x="109" y="-10" identifier="4nCB4aCuij"/>
    </contour>
  </outline>
</glyph>
<glyph name="h" format="2">
  <advance width="489"/>
  <unicode hex="0068"/>
  <guideline x="196" y="26" angle="0" identifier="Q2z4zDZ6Ol"/>
  <anchor x="259" y="755" name="top"/>
  <anchor x="249" y="0" name="bottom"/>
  <outline>
    <contour>
      <point x="134" y="735" type="line"/>
      <point x="29" y="735" type="line"/>
      <point x="29" y="715" type="line"/>
      <point x="40" y="712" type="line" smooth="yes"/>
      <point x="85" y="700"/>
      <point x="96.0" y="696.0"/>
      <point x="96" y="664" type="curve" smooth="yes"/>
      <point x="96.0" y="57.0" type="line" smooth="yes"/>
      <point x="96.0" y="32.0"/>
      <point x="77.0" y="26"/>
      <point x="51.0" y="26.0" type="curve" smooth="yes"/>
      <point x="29" y="26" type="line"/>
      <point x="29" y="0" type="line"/>
      <point x="195" y="0" type="line"/>
      <point x="195" y="26" type="line"/>
      <point x="192" y="26" type="line" smooth="yes"/>
      <point x="169" y="26"/>
      <point x="134" y="29"/>
      <point x="134" y="36" type="curve"/>
    </contour>
    <contour>
      <point x="467" y="0" type="line"/>
      <point x="467" y="26" type="line"/>
      <point x="446" y="26.0" type="line" smooth="yes"/>
      <point x="420" y="26"/>
      <point x="400.0" y="32"/>
      <point x="400.0" y="57" type="curve" smooth="yes"/>
      <point x="400.0" y="386.0" type="line" smooth="yes"/>
      <point x="400" y="475"/>
      <point x="354.0" y="518.0"/>
      <point x="278" y="518" type="curve" smooth="yes"/>
      <point x="215" y="518"/>
      <point x="169" y="487"/>
      <point x="129" y="417" type="curve"/>
      <point x="129" y="379" type="line"/>
      <point x="169" y="449"/>
      <point x="214.0" y="487.0"/>
      <point x="276" y="487.0" type="curve" smooth="yes"/>
      <point x="338.0" y="487.0"/>
      <point x="362.0" y="450.0"/>
      <point x="362.0" y="383.0" type="curve" smooth="yes"/>
      <point x="362" y="36" type="line" smooth="yes"/>
      <point x="362" y="29"/>
      <point x="325" y="26"/>
      <point x="303" y="26" type="curve" smooth="yes"/>
      <point x="301" y="26" type="line"/>
      <point x="301" y="0" type="line"/>
    </contour>
  </outline>
</glyph>
<glyph name="i" format="2">
  <advance width="228"/>
  <unicode hex="0069"/>
  <anchor x="123" y="508" name="top"/>
  <anchor x="164" y="-10" name="right"/>
  <anchor x="121" y="-10" name="bottom"/>
  <outline>
    <contour>
      <point x="109" y="649" type="curve" smooth="yes"/>
      <point x="135" y="649"/>
      <point x="148" y="664"/>
      <point x="148" y="693" type="curve" smooth="yes"/>
      <point x="148" y="722"/>
      <point x="135" y="737"/>
      <point x="109" y="737" type="curve" smooth="yes"/>
      <point x="83" y="737"/>
      <point x="70" y="722"/>
      <point x="70" y="693" type="curve" smooth="yes"/>
      <point x="70" y="664"/>
      <point x="83" y="649"/>
    </contour>
    <contour>
      <point x="134" y="508" type="line"/>
      <point x="29" y="508" type="line"/>
      <point x="29" y="488" type="line"/>
      <point x="37" y="486" type="line" smooth="yes"/>
      <point x="82" y="475"/>
      <point x="96.0" y="468.0"/>
      <point x="96.0" y="438" type="curve" smooth="yes"/>
      <point x="96" y="57" type="line" smooth="yes"/>
      <point x="96.0" y="32.0"/>
      <point x="76.0" y="26.0"/>
      <point x="50" y="26" type="curve" smooth="yes"/>
      <point x="29" y="26" type="line"/>
      <point x="29" y="0" type="line"/>
      <point x="202" y="0" type="line"/>
      <point x="202" y="26" type="line"/>
      <point x="180" y="26" type="line" smooth="yes"/>
      <point x="154" y="26"/>
      <point x="134.0" y="32.0"/>
      <point x="134" y="57" type="curve" smooth="yes"/>
    </contour>
  </outline>
</glyph>
<glyph name="m" format="2">
  <advance width="706"/>
  <unicode hex="006D"/>
  <anchor x="358" y="-10" name="bottom"/>
  <outline>
    <contour>
      <point x="29" y="0" type="line"/>
      <point x="194" y="0" type="line"/>
      <point x="194" y="26" type="line"/>
      <point x="192" y="26" type="line" smooth="yes"/>
      <point x="169" y="26"/>
      <point x="134" y="29"/>
      <point x="134" y="36" type="curve" smooth="yes"/>
      <point x="134" y="398" type="line"/>
      <point x="132" y="398" type="line"/>
      <point x="132" y="508" type="line"/>
      <point x="29" y="508" type="line"/>
      <point x="29" y="488" type="line"/>
      <point x="37" y="486" type="line" smooth="yes"/>
      <point x="82" y="475"/>
      <point x="96.0" y="468.0"/>
      <point x="96" y="438" type="curve" smooth="yes"/>
      <point x="96" y="57" type="line" smooth="yes"/>
      <point x="96" y="32"/>
      <point x="76.0" y="26.0"/>
      <point x="50" y="26" type="curve" smooth="yes"/>
      <point x="29" y="26" type="line"/>
    </contour>
    <contour>
      <point x="435" y="0" type="line"/>
      <point x="435" y="26" type="line"/>
      <point x="433" y="26" type="line" smooth="yes"/>
      <point x="411" y="26"/>
      <point x="375" y="29"/>
      <point x="375" y="36" type="curve" smooth="yes"/>
      <point x="375" y="397" type="line" smooth="yes"/>
      <point x="375.0" y="467.0"/>
      <point x="334" y="518"/>
      <point x="264" y="518" type="curve"/>
      <point x="207.0" y="518.0"/>
      <point x="165" y="488"/>
      <point x="129" y="424" type="curve"/>
      <point x="129" y="382" type="line"/>
      <point x="163" y="447"/>
      <point x="202.0" y="487.0"/>
      <point x="256" y="487" type="curve"/>
      <point x="315" y="487"/>
      <point x="337.0" y="449.0"/>
      <point x="337" y="389" type="curve" smooth="yes"/>
      <point x="337" y="36" type="line" smooth="yes"/>
      <point x="337" y="29"/>
      <point x="301" y="26"/>
      <point x="279" y="26" type="curve" smooth="yes"/>
      <point x="277" y="26" type="line"/>
      <point x="277" y="0" type="line"/>
    </contour>
    <contour>
      <point x="684" y="0" type="line"/>
      <point x="684" y="26" type="line"/>
      <point x="662" y="26.0" type="line" smooth="yes"/>
      <point x="636" y="26"/>
      <point x="616.0" y="32"/>
      <point x="616.0" y="57" type="curve" smooth="yes"/>
      <point x="616.0" y="397" type="line" smooth="yes"/>
      <point x="616" y="467"/>
      <point x="575" y="518"/>
      <point x="505" y="518" type="curve"/>
      <point x="447.0" y="518.0"/>
      <point x="403" y="486"/>
      <point x="366" y="417" type="curve"/>
      <point x="366" y="374" type="line"/>
      <point x="402" y="443"/>
      <point x="443" y="487"/>
      <point x="497" y="487" type="curve"/>
      <point x="556" y="487"/>
      <point x="578.0" y="449.0"/>
      <point x="578.0" y="389" type="curve" smooth="yes"/>
      <point x="578" y="36" type="line" smooth="yes"/>
      <point x="578" y="29"/>
      <point x="542" y="26"/>
      <point x="520" y="26" type="curve" smooth="yes"/>
      <point x="518" y="26" type="line"/>
      <point x="518" y="0" type="line"/>
    </contour>
  </outline>
</glyph>
<glyph name="s" format="2">
  <advance width="362"/>
  <unicode hex="0073"/>
  <anchor x="182" y="508" name="top"/>
  <anchor x="185" y="0" name="bottom"/>
  <outline>
    <contour>
      <point x="294" y="127" type="curve" smooth="yes"/>
      <point x="294" y="57"/>
      <point x="252" y="19"/>
      <point x="185" y="19" type="curve" smooth="yes"/>
      <point x="134" y="19"/>
      <point x="93" y="32"/>
      <point x="58" y="68" type="curve"/>
      <point x="58" y="58"/>
      <point x="61" y="42"/>
      <point x="75" y="27" type="curve"/>
      <point x="75" y="125" type="line"/>
      <point x="31" y="125" type="line"/>
      <point x="31" y="44" type="line"/>
      <point x="67" y="12"/>
      <point x="118" y="-10"/>
      <point x="185" y="-10" type="curve" smooth="yes"/>
      <point x="276" y="-10"/>
      <point x="330" y="50"/>
      <point x="330" y="132" type="curve" smooth="yes"/>
      <point x="330.0" y="225.0"/>
      <point x="272" y="254"/>
      <point x="195" y="281" type="curve" smooth="yes"/>
      <point x="115" y="310"/>
      <point x="83.0" y="329.0"/>
      <point x="83" y="392" type="curve" smooth="yes"/>
      <point x="83" y="452"/>
      <point x="117" y="489"/>
      <point x="182" y="489" type="curve" smooth="yes"/>
      <point x="223" y="489"/>
      <point x="257" y="472"/>
      <point x="277" y="446" type="curve"/>
      <point x="278" y="454"/>
      <point x="272" y="464"/>
      <point x="262" y="473" type="curve"/>
      <point x="262" y="398" type="line"/>
      <point x="305" y="398" type="line"/>
      <point x="305" y="473" type="line"/>
      <point x="283" y="494"/>
      <point x="244" y="518"/>
      <point x="182" y="518" type="curve" smooth="yes"/>
      <point x="98" y="518"/>
      <point x="47" y="470"/>
      <point x="47" y="389" type="curve" smooth="yes"/>
      <point x="47.0" y="298.0"/>
      <point x="98" y="275"/>
      <point x="180" y="247" type="curve" smooth="yes"/>
      <point x="264" y="219"/>
      <point x="294.0" y="190.0"/>
    </contour>
  </outline>
</glyph>
<glyph name="AE" format="2">
  <advance width="760"/>
  <unicode hex="00C6"/>
  <anchor x="496" y="741" name="top"/>
  <outline>
    <contour>
      <point x="194" y="298" type="line"/>
      <point x="177" y="269" type="line"/>
      <point x="401" y="269" type="line"/>
      <point x="401" y="298" type="line"/>
    </contour>
    <contour>
      <point x="412" y="377" type="curve"/>
      <point x="412" y="351" type="line"/>
      <point x="484" y="350"/>
      <point x="554" y="348"/>
      <point x="625" y="347" type="curve"/>
      <point x="625" y="381" type="line"/>
      <point x="553" y="381"/>
      <point x="482" y="379"/>
    </contour>
    <contour>
      <point x="314" y="0" type="line"/>
      <point x="715" y="0" type="line"/>
      <point x="715" y="187" type="line"/>
      <point x="690" y="187" type="line"/>
      <point x="683" y="72" type="line" smooth="yes"/>
      <point x="680" y="36"/>
      <point x="651" y="29"/>
      <point x="582" y="29" type="curve" smooth="yes"/>
      <point x="429" y="29" type="line"/>
      <point x="429" y="681" type="line"/>
      <point x="558" y="681" type="line" smooth="yes"/>
      <point x="628" y="681"/>
      <point x="656" y="674"/>
      <point x="659" y="638" type="curve" smooth="yes"/>
      <point x="667" y="548" type="line"/>
      <point x="691" y="548" type="line"/>
      <point x="691" y="710" type="line"/>
      <point x="263" y="710" type="line"/>
      <point x="263" y="681" type="line"/>
      <point x="273" y="681" type="line" smooth="yes"/>
      <point x="315" y="681"/>
      <point x="345" y="674"/>
      <point x="347" y="656" type="curve"/>
      <point x="55" y="72" type="line" smooth="yes"/>
      <point x="37" y="38"/>
      <point x="25" y="29"/>
      <point x="-2" y="29" type="curve" smooth="yes"/>
      <point x="-6" y="29" type="line"/>
      <point x="-6" y="0" type="line"/>
      <point x="158" y="0" type="line"/>
      <point x="158" y="29" type="line"/>
      <point x="146" y="29" type="line" smooth="yes"/>
      <point x="115" y="29"/>
      <point x="78" y="36"/>
      <point x="78" y="47" type="curve"/>
      <point x="392" y="678" type="line"/>
      <point x="392" y="678" type="line"/>
      <point x="392" y="39" type="line"/>
      <point x="392" y="32"/>
      <point x="352" y="29"/>
      <point x="321" y="29" type="curve" smooth="yes"/>
      <point x="314" y="29" type="line"/>
    </contour>
  </outline>
</glyph>
<glyph name="aogonek" format="2">
  <advance width="426"/>
  <unicode hex="0105"/>
  <outline>
    <contour>
      <point x="223" y="-140" type="curve" smooth="yes"/>
      <point x="223" y="-198"/>
      <point x="259" y="-233"/>
      <point x="302" y="-233" type="curve" smooth="yes"/>
      <point x="337" y="-233"/>
      <point x="363" y="-211"/>
      <point x="385" y="-180" type="curve"/>
      <point x="369" y="-160" type="line"/>
      <point x="352" y="-184"/>
      <point x="334" y="-204"/>
      <point x="308" y="-204" type="curve" smooth="yes"/>
      <point x="283" y="-204"/>
      <point x="261" y="-182"/>
      <point x="261" y="-140" type="curve" smooth="yes"/>
      <point x="261" y="-82"/>
      <point x="289" y="-50"/>
      <point x="348" y="1" type="curve"/>
      <point x="332" y="20" type="line"/>
      <point x="277" y="-22"/>
      <point x="223" y="-69"/>
    </contour>
    <contour>
      <point x="406" y="0" type="line"/>
      <point x="406" y="26" type="line"/>
      <point x="405" y="26" type="line"/>
      <point x="367" y="26"/>
      <point x="339" y="33"/>
      <point x="339" y="62" type="curve" smooth="yes"/>
      <point x="339" y="371" type="line" smooth="yes"/>
      <point x="339" y="484"/>
      <point x="274" y="518"/>
      <point x="203" y="518" type="curve" smooth="yes"/>
      <point x="137" y="518"/>
      <point x="92" y="486"/>
      <point x="69" y="461" type="curve"/>
      <point x="69" y="385" type="line"/>
      <point x="111" y="385" type="line"/>
      <point x="111" y="467" type="line"/>
      <point x="93" y="468"/>
      <point x="84" y="440"/>
      <point x="87" y="426" type="curve"/>
      <point x="108" y="462"/>
      <point x="144" y="489"/>
      <point x="203" y="489" type="curve" smooth="yes"/>
      <point x="265" y="489"/>
      <point x="301" y="461"/>
      <point x="301" y="362" type="curve" smooth="yes"/>
      <point x="301" y="110" type="line"/>
      <point x="302" y="110" type="line"/>
      <point x="302" y="0" type="line"/>
    </contour>
    <contour>
      <point x="46" y="123" type="curve" smooth="yes"/>
      <point x="46" y="43"/>
      <point x="96" y="-10"/>
      <point x="167" y="-10" type="curve" smooth="yes"/>
      <point x="230" y="-10"/>
      <point x="278" y="33"/>
      <point x="307" y="96" type="curve"/>
      <point x="307" y="149" type="line"/>
      <point x="285" y="82"/>
      <point x="237" y="19"/>
      <point x="172" y="19" type="curve" smooth="yes"/>
      <point x="114" y="19"/>
      <point x="86" y="61"/>
      <point x="86" y="123" type="curve" smooth="yes"/>
      <point x="86" y="217"/>
      <point x="153" y="251"/>
      <point x="307" y="275" type="curve"/>
      <point x="307" y="304" type="line"/>
      <point x="133" y="278"/>
      <point x="46" y="235"/>
    </contour>
  </outline>
</glyph>
<glyph name="lslash" format="2">
  <advance width="229"/>
  <unicode hex="0142"/>
  <outline>
    <contour>
      <point x="21" y="230" type="line"/>
      <point x="217" y="479" type="line"/>
      <point x="217" y="526" type="line"/>
      <point x="21" y="277" type="line"/>
    </contour>
    <component base="l"/>
  </outline>
</glyph>
<glyph name="ohorn" format="2">
  <advance width="468"/>
  <unicode hex="01A1"/>
  <anchor x="226" y="508" name="top"/>
  <outline>
    <contour>
      <point x="229" y="17" type="curve"/>
      <point x="135" y="17"/>
      <point x="76" y="109"/>
      <point x="76" y="253" type="curve" smooth="yes"/>
      <point x="76" y="394"/>
      <point x="135" y="489"/>
      <point x="229" y="489" type="curve" smooth="yes"/>
      <point x="323" y="489"/>
      <point x="382" y="394"/>
      <point x="382" y="253" type="curve" smooth="yes"/>
      <point x="382" y="108"/>
      <point x="323" y="17"/>
    </contour>
    <contour>
      <point x="293" y="492" type="line"/>
      <point x="306" y="489"/>
      <point x="318" y="486"/>
      <point x="326" y="486" type="curve"/>
      <point x="397" y="486"/>
      <point x="438" y="572"/>
      <point x="446" y="685" type="curve"/>
      <point x="410" y="685" type="line"/>
      <point x="404" y="578"/>
      <point x="375" y="508"/>
      <point x="316" y="508" type="curve" smooth="yes"/>
      <point x="291" y="508"/>
      <point x="269" y="518"/>
      <point x="229" y="518" type="curve" smooth="yes"/>
      <point x="116" y="518"/>
      <point x="36" y="410"/>
      <point x="36" y="253" type="curve" smooth="yes"/>
      <point x="36" y="95"/>
      <point x="117" y="-12"/>
      <point x="229" y="-12" type="curve"/>
      <point x="341" y="-12"/>
      <point x="422" y="95"/>
      <point x="422" y="253" type="curve" smooth="yes"/>
      <point x="422" y="369"/>
      <point x="371" y="462"/>
      <point x="293" y="494" type="curve"/>
      <point x="304" y="486" type="line"/>
      <point x="304" y="492" type="line"/>
    </contour>
  </outline>
</glyph>
<glyph name="Uhorn" format="2">
  <advance width="662"/>
  <unicode hex="01AF"/>
  <anchor x="325" y="663" name="top"/>
  <outline>
    <contour>
      <point x="600" y="698" type="curve" smooth="yes"/>
      <point x="666" y="724"/>
      <point x="695" y="787"/>
      <point x="697" y="878" type="curve"/>
      <point x="660" y="878" type="line"/>
      <point x="654" y="737"/>
      <point x="615" y="710"/>
      <point x="493" y="710" type="curve" smooth="yes"/>
      <point x="414" y="710" type="line"/>
      <point x="414" y="681" type="line"/>
      <point x="421" y="681" type="line" smooth="yes"/>
      <point x="452" y="681"/>
      <point x="491" y="673"/>
      <point x="491" y="659" type="curve" smooth="yes"/>
      <point x="491" y="271" type="line" smooth="yes"/>
      <point x="491" y="88"/>
      <point x="418" y="22"/>
      <point x="322" y="22" type="curve" smooth="yes"/>
      <point x="226" y="22"/>
      <point x="152" y="85"/>
      <point x="152" y="271" type="curve" smooth="yes"/>
      <point x="152" y="671" type="line" smooth="yes"/>
      <point x="152" y="678"/>
      <point x="191" y="681"/>
      <point x="222" y="681" type="curve" smooth="yes"/>
      <point x="229" y="681" type="line"/>
      <point x="229" y="710" type="line"/>
      <point x="36" y="710" type="line"/>
      <point x="36" y="681" type="line"/>
      <point x="45" y="681" type="line" smooth="yes"/>
      <point x="85" y="681"/>
      <point x="114" y="674"/>
      <point x="114" y="645" type="curve" smooth="yes"/>
      <point x="114" y="271" type="line" smooth="yes"/>
      <point x="114" y="68"/>
      <point x="200" y="-10"/>
      <point x="318" y="-10" type="curve" smooth="yes"/>
      <point x="431" y="-10"/>
      <point x="521" y="69"/>
      <point x="521" y="271" type="curve" smooth="yes"/>
      <point x="521" y="645" type="line" smooth="yes"/>
      <point x="521" y="680"/>
      <point x="542" y="672"/>
    </contour>
  </outline>
</glyph>
<glyph name="icaron" format="2">
  <advance width="229"/>
  <unicode hex="01D0"/>
  <outline>
    <contour>
      <point x="85" y="598" type="line"/>
      <point x="3" y="729" type="line"/>
      <point x="3" y="739" type="line"/>
      <point x="25" y="739" type="line"/>
      <point x="129" y="609" type="line"/>
      <point x="98" y="609" type="line"/>
      <point x="202" y="739" type="line"/>
      <point x="219" y="739" type="line"/>
      <point x="219" y="729" type="line"/>
      <point x="138" y="598" type="line"/>
    </contour>
    <component base="dotlessi"/>
  </outline>
</glyph>
<glyph name="dotlessj" format="2">
  <advance width="207"/>
  <unicode hex="0237"/>
  <anchor x="121" y="508" name="top"/>
  <outline>
    <contour>
      <point x="92" y="-77" type="line" smooth="yes"/>
      <point x="92" y="-173"/>
      <point x="60" y="-206"/>
      <point x="9" y="-206" type="curve" smooth="yes"/>
      <point x="-21" y="-206"/>
      <point x="-42" y="-196"/>
      <point x="-61" y="-187" type="curve"/>
      <point x="-61" y="-220" type="line"/>
      <point x="-46" y="-229"/>
      <point x="-23" y="-236"/>
      <point x="9" y="-236" type="curve" smooth="yes"/>
      <point x="68" y="-236"/>
      <point x="130" y="-205"/>
      <point x="130" y="-77" type="curve" smooth="yes"/>
      <point x="130" y="508" type="line"/>
      <point x="23" y="508" type="line"/>
      <point x="23" y="484" type="line"/>
      <point x="32" y="482" type="line" smooth="yes"/>
      <point x="72" y="472"/>
      <point x="92" y="466"/>
      <point x="92" y="437" type="curve" smooth="yes"/>
    </contour>
  </outline>
</glyph>
<glyph name="hungarumlaut" format="2">
  <advance width="403"/>
  <unicode hex="02DD"/>
  <anchor x="209" y="525" name="_top"/>
  <outline>
    <contour>
      <point x="139" y="704" type="curve" smooth="yes"/>
      <point x="114" y="593" type="line"/>
      <point x="114" y="577" type="line"/>
      <point x="129" y="577" type="line"/>
      <point x="179" y="685" type="line" smooth="yes"/>
      <point x="186" y="700"/>
      <point x="194" y="715"/>
      <point x="194" y="728" type="curve" smooth="yes"/>
      <point x="194" y="745"/>
      <point x="185" y="754"/>
      <point x="172" y="754" type="curve" smooth="yes"/>
      <point x="153" y="754"/>
      <point x="146" y="735"/>
    </contour>
    <contour>
      <point x="246" y="704" type="curve" smooth="yes"/>
      <point x="221" y="593" type="line"/>
      <point x="221" y="577" type="line"/>
      <point x="236" y="577" type="line"/>
      <point x="286" y="685" type="line" smooth="yes"/>
      <point x="294" y="700"/>
      <point x="302" y="715"/>
      <point x="302" y="728" type="curve" smooth="yes"/>
      <point x="302" y="745"/>
      <point x="292" y="754"/>
      <point x="279" y="754" type="curve" smooth="yes"/>
      <point x="261" y="754"/>
      <point x="253" y="735"/>
    </contour>
  </outline>
</glyph>
<glyph name="pi" format="2">
  <advance width="572"/>
  <unicode hex="03C0"/>
  <outline>
    <contour>
      <point x="219" y="0" type="line"/>
      <point x="219" y="489" type="line"/>
      <point x="191" y="489" type="line"/>
      <point x="185" y="223"/>
      <point x="178" y="188"/>
      <point x="178" y="0" type="curve"/>
    </contour>
    <contour>
      <point x="529" y="481" type="line"/>
      <point x="529" y="508" type="line"/>
      <point x="220" y="508" type="line" smooth="yes"/>
      <point x="110" y="508"/>
      <point x="62" y="444"/>
      <point x="43" y="336" type="curve"/>
      <point x="67" y="323" type="line"/>
      <point x="83" y="421"/>
      <point x="116" y="481"/>
      <point x="218" y="481" type="curve" smooth="yes"/>
    </contour>
    <contour>
      <point x="423" y="92" type="curve" smooth="yes"/>
      <point x="423" y="489" type="line"/>
      <point x="395" y="489" type="line"/>
      <point x="389" y="240"/>
      <point x="382" y="159"/>
      <point x="382" y="98" type="curve" smooth="yes"/>
      <point x="382" y="27"/>
      <point x="411" y="-6"/>
      <point x="456" y="-6" type="curve" smooth="yes"/>
      <point x="505" y="-6"/>
      <point x="528" y="37"/>
      <point x="543" y="85" type="curve"/>
      <point x="521" y="96" type="line"/>
      <point x="515" y="78"/>
      <point x="499" y="22"/>
      <point x="462" y="22" type="curve" smooth="yes"/>
      <point x="441" y="22"/>
      <point x="423" y="38"/>
    </contour>
  </outline>
</glyph>
<glyph name="arrowleft" format="2">
  <advance width="596"/>
  <unicode hex="2190"/>
  <outline>
    <contour>
      <point x="333" y="560" type="line"/>
      <point x="45" y="360" type="line"/>
      <point x="45" y="346" type="line"/>
      <point x="333" y="146" type="line"/>
      <point x="341" y="159" type="line"/>
      <point x="229" y="324" type="line"/>
      <point x="552" y="324" type="line"/>
      <point x="552" y="382" type="line"/>
      <point x="229" y="382" type="line"/>
      <point x="341" y="547" type="line"/>
    </contour>
  </outline>
</glyph>
<glyph name="product" format="2">
  <advance width="569"/>
  <unicode hex="220F"/>
  <outline>
    <contour>
      <point x="37" y="710" type="line"/>
      <point x="37" y="681" type="line"/>
      <point x="45" y="681" type="line" smooth="yes"/>
      <point x="85" y="681"/>
      <point x="114" y="674"/>
      <point x="114" y="645" type="curve" smooth="yes"/>
      <point x="114" y="-158" type="line" smooth="yes"/>
      <point x="114" y="-187"/>
      <point x="85" y="-194"/>
      <point x="45" y="-194" type="curve" smooth="yes"/>
      <point x="37" y="-194" type="line"/>
      <point x="37" y="-223" type="line"/>
      <point x="229" y="-223" type="line"/>
      <point x="229" y="-194" type="line"/>
      <point x="222" y="-194" type="line" smooth="yes"/>
      <point x="191" y="-194"/>
      <point x="152" y="-191"/>
      <point x="152" y="-184" type="curve" smooth="yes"/>
      <point x="152" y="671" type="line" smooth="yes"/>
      <point x="152" y="678"/>
      <point x="191" y="681"/>
      <point x="222" y="681" type="curve" smooth="yes"/>
      <point x="347" y="681" type="line" smooth="yes"/>
      <point x="378" y="681"/>
      <point x="418" y="678"/>
      <point x="418" y="671" type="curve" smooth="yes"/>
      <point x="418" y="-184" type="line" smooth="yes"/>
      <point x="418" y="-191"/>
      <point x="378" y="-194"/>
      <point x="348" y="-194" type="curve" smooth="yes"/>
      <point x="340" y="-194" type="line"/>
      <point x="340" y="-223" type="line"/>
      <point x="533" y="-223" type="line"/>
      <point x="533" y="-194" type="line"/>
      <point x="524" y="-194" type="line" smooth="yes"/>
      <point x="484" y="-194"/>
      <point x="456" y="-187"/>
      <point x="456" y="-158" type="curve" smooth="yes"/>
      <point x="456" y="645" type="line" smooth="yes"/>
      <point x="456" y="674"/>
      <point x="484" y="681"/>
      <point x="524" y="681" type="curve" smooth="yes"/>
      <point x="533" y="681" type="line"/>
      <point x="533" y="710" type="line"/>
    </contour>
  </outline>
</glyph>
<glyph name="two.den" format="2">
  <advance width="261"/>
  <unicode hex="E404"/>
  <outline>
    <contour>
      <point x="152" y="27" type="line" smooth="yes"/>
      <point x="189" y="27"/>
      <point x="202" y="31"/>
      <point x="204" y="50" type="curve" smooth="yes"/>
      <point x="208" y="89" type="line"/>
      <point x="230" y="89" type="line"/>
      <point x="230" y="0" type="line"/>
      <point x="21" y="0" type="line"/>
      <point x="21" y="31" type="line"/>
      <point x="105" y="97"/>
      <point x="180" y="162"/>
      <point x="180" y="247" type="curve" smooth="yes"/>
      <point x="180" y="295"/>
      <point x="158" y="316"/>
      <point x="123" y="316" type="curve" smooth="yes"/>
      <point x="93" y="316"/>
      <point x="68" y="300"/>
      <point x="55" y="271" type="curve"/>
      <point x="56" y="292"/>
      <point x="64" y="304"/>
      <point x="66" y="304" type="curve"/>
      <point x="66" y="236" type="line"/>
      <point x="29" y="236" type="line"/>
      <point x="29" y="288" type="line"/>
      <point x="44" y="317"/>
      <point x="78" y="346"/>
      <point x="125" y="346" type="curve" smooth="yes"/>
      <point x="185" y="346"/>
      <point x="220" y="310"/>
      <point x="220" y="245" type="curve" smooth="yes"/>
      <point x="220" y="156"/>
      <point x="126" y="72"/>
      <point x="45" y="20" type="curve"/>
      <point x="41" y="21"/>
      <point x="41" y="25"/>
      <point x="42" y="27" type="curve"/>
    </contour>
  </outline>
</glyph>
<glyph name="f_f_i" format="2">
  <advance width="771"/>
  <unicode hex="FB03"/>
  <outline>
    <contour>
      <point x="29" y="508" type="line"/>
      <point x="29" y="483" type="line"/>
      <point x="350" y="483" type="line"/>
      <point x="350" y="508" type="line"/>
    </contour>
    <contour>
      <point x="293" y="508" type="line"/>
      <point x="293" y="483" type="line"/>
      <point x="621" y="483" type="line"/>
      <point x="621" y="508" type="line"/>
    </contour>
    <contour>
      <point x="653" y="659" type="curve" smooth="yes"/>
      <point x="673" y="659"/>
      <point x="688" y="672"/>
      <point x="688" y="698" type="curve" smooth="yes"/>
      <point x="688" y="723"/>
      <point x="673" y="737"/>
      <point x="653" y="737" type="curve" smooth="yes"/>
      <point x="634" y="737"/>
      <point x="619" y="723"/>
      <point x="619" y="698" type="curve" smooth="yes"/>
      <point x="619" y="672"/>
      <point x="634" y="659"/>
    </contour>
    <contour>
      <point x="574" y="0" type="line"/>
      <point x="747" y="0" type="line"/>
      <point x="747" y="26" type="line"/>
      <point x="746" y="26" type="line" smooth="yes"/>
      <point x="707" y="26"/>
      <point x="680" y="33"/>
      <point x="680" y="62" type="curve" smooth="yes"/>
      <point x="680" y="508" type="line"/>
      <point x="574" y="508" type="line"/>
      <point x="574" y="483" type="line"/>
      <point x="582" y="483" type="line" smooth="yes"/>
      <point x="624" y="483"/>
      <point x="642" y="469"/>
      <point x="642" y="440" type="curve"/>
      <point x="642" y="36" type="line"/>
      <point x="642" y="29"/>
      <point x="606" y="26"/>
      <point x="583" y="26" type="curve" smooth="yes"/>
      <point x="574" y="26" type="line"/>
    </contour>
    <contour>
      <point x="150" y="36" type="curve"/>
      <point x="150" y="578" type="line" smooth="yes"/>
      <point x="150" y="677"/>
      <point x="181" y="711"/>
      <point x="231" y="711" type="curve" smooth="yes"/>
      <point x="256" y="711"/>
      <point x="277" y="702"/>
      <point x="294" y="694" type="curve"/>
      <point x="294" y="727" type="line"/>
      <point x="280" y="733"/>
      <point x="256" y="737"/>
      <point x="232" y="737" type="curve" smooth="yes"/>
      <point x="164" y="737"/>
      <point x="112" y="690"/>
      <point x="112" y="578" type="curve" smooth="yes"/>
      <point x="112" y="62" type="line"/>
      <point x="112" y="33"/>
      <point x="86" y="26"/>
      <point x="42" y="26" type="curve" smooth="yes"/>
      <point x="33" y="26" type="line"/>
      <point x="33" y="0" type="line"/>
      <point x="234" y="0" type="line"/>
      <point x="234" y="26" type="line"/>
      <point x="225" y="26" type="line" smooth="yes"/>
      <point x="182" y="26"/>
      <point x="150" y="29"/>
    </contour>
    <contour>
      <point x="377" y="36" type="line"/>
      <point x="377" y="29"/>
      <point x="345" y="26"/>
      <point x="302" y="26" type="curve" smooth="yes"/>
      <point x="297" y="26" type="line"/>
      <point x="297" y="0" type="line"/>
      <point x="501" y="0" type="line"/>
      <point x="501" y="26" type="line"/>
      <point x="490" y="26" type="line" smooth="yes"/>
      <point x="447" y="26"/>
      <point x="415" y="29"/>
      <point x="415" y="36" type="curve"/>
      <point x="415" y="593" type="line" smooth="yes"/>
      <point x="415" y="692"/>
      <point x="444" y="726"/>
      <point x="492" y="726" type="curve" smooth="yes"/>
      <point x="517" y="726"/>
      <point x="537" y="717"/>
      <point x="553" y="709" type="curve"/>
      <point x="553" y="742" type="line"/>
      <point x="540" y="748"/>
      <point x="517" y="752"/>
      <point x="494" y="752" type="curve" smooth="yes"/>
      <point x="428" y="752"/>
      <point x="377" y="705"/>
      <point x="377" y="593" type="curve"/>
    </contour>
  </outline>
</glyph>
<glyph name="acute.ucpl" format="2">
  <advance width="404"/>
  <anchor x="147" y="694" name="_top"/>
  <outline>
    <contour>
      <point x="152" y="855" type="curve" smooth="yes"/>
      <point x="146" y="767" type="line"/>
      <point x="146" y="750" type="line"/>
      <point x="161" y="750" type="line"/>
      <point x="191" y="836" type="line" smooth="yes"/>
      <point x="199" y="851"/>
      <point x="203" y="864"/>
      <point x="203" y="878" type="curve" smooth="yes"/>
      <point x="203" y="894"/>
      <point x="194" y="904"/>
      <point x="181" y="904" type="curve" smooth="yes"/>
      <point x="163" y="904"/>
      <point x="155" y="887"/>
    </contour>
  </outline>
</glyph>
<glyph name="bracketleft.uc" format="2">
  <advance width="226"/>
  <outline>
    <contour>
      <point x="205" y="-10" type="line"/>
      <point x="85" y="-10" type="line"/>
      <point x="85" y="720" type="line"/>
      <point x="205" y="720" type="line"/>
      <point x="205" y="749" type="line"/>
      <point x="48" y="749" type="line"/>
      <point x="48" y="-39" type="line"/>
      <point x="205" y="-39" type="line"/>
    </contour>
  </outline>
</glyph>
<glyph name="f_b" format="2">
  <advance width="785"/>
  <outline>
    <contour>
      <point x="709" y="257" type="curve" smooth="yes"/>
      <point x="709" y="114"/>
      <point x="659" y="19"/>
      <point x="565" y="19" type="curve" smooth="yes"/>
      <point x="495" y="19"/>
      <point x="442" y="85"/>
      <point x="407" y="182" type="curve"/>
      <point x="389" y="161" type="line"/>
      <point x="434" y="52"/>
      <point x="484" y="-10"/>
      <point x="567" y="-10" type="curve" smooth="yes"/>
      <point x="677" y="-10"/>
      <point x="749" y="99"/>
      <point x="749" y="257" type="curve" smooth="yes"/>
      <point x="749" y="414"/>
      <point x="680" y="518"/>
      <point x="573" y="518" type="curve" smooth="yes"/>
      <point x="485" y="518"/>
      <point x="436" y="449"/>
      <point x="384" y="338" type="curve"/>
      <point x="399" y="311" type="line"/>
      <point x="442" y="416"/>
      <point x="496" y="489"/>
      <point x="568" y="489" type="curve" smooth="yes"/>
      <point x="660" y="489"/>
      <point x="709" y="400"/>
    </contour>
    <contour>
      <point x="377" y="703" type="line"/>
      <point x="377" y="-3" type="line"/>
      <point x="401" y="-3" type="line"/>
      <point x="414" y="127" type="line"/>
      <point x="415" y="142" type="line"/>
      <point x="415" y="735" type="line"/>
      <point x="331" y="735" type="line"/>
    </contour>
    <contour>
      <point x="29" y="508" type="line"/>
      <point x="29" y="483" type="line"/>
      <point x="278" y="483" type="line"/>
      <point x="278" y="508" type="line"/>
    </contour>
    <contour>
      <point x="150" y="597" type="line" smooth="yes"/>
      <point x="150" y="696"/>
      <point x="189" y="723"/>
      <point x="263" y="723" type="curve" smooth="yes"/>
      <point x="312" y="723"/>
      <point x="358" y="709"/>
      <point x="395" y="676" type="curve"/>
      <point x="400" y="712" type="line"/>
      <point x="370" y="727"/>
      <point x="326" y="752"/>
      <point x="263" y="752" type="curve" smooth="yes"/>
      <point x="172" y="752"/>
      <point x="112" y="709"/>
      <point x="112" y="597" type="curve" smooth="yes"/>
      <point x="112" y="62" type="line" smooth="yes"/>
      <point x="112" y="33"/>
      <point x="86" y="26"/>
      <point x="42" y="26" type="curve" smooth="yes"/>
      <point x="33" y="26" type="line"/>
      <point x="33" y="0" type="line"/>
      <point x="236" y="0" type="line"/>
      <point x="236" y="26" type="line"/>
      <point x="226" y="26" type="line" smooth="yes"/>
      <point x="183" y="26"/>
      <point x="150" y="29"/>
      <point x="150" y="36" type="curve" smooth="yes"/>
    </contour>
  </outline>
</glyph>
<glyph name="f_f_b" format="2">
  <advance width="1050"/>
  <outline>
    <contour>
      <point x="974" y="257" type="curve" smooth="yes"/>
      <point x="974" y="114"/>
      <point x="924" y="19"/>
      <point x="829" y="19" type="curve" smooth="yes"/>
      <point x="760" y="19"/>
      <point x="707" y="85"/>
      <point x="672" y="182" type="curve"/>
      <point x="654" y="161" type="line"/>
      <point x="699" y="52"/>
      <point x="748" y="-10"/>
      <point x="832" y="-10" type="curve" smooth="yes"/>
      <point x="942" y="-10"/>
      <point x="1014" y="99"/>
      <point x="1014" y="257" type="curve" smooth="yes"/>
      <point x="1014" y="414"/>
      <point x="945" y="518"/>
      <point x="838" y="518" type="curve" smooth="yes"/>
      <point x="750" y="518"/>
      <point x="701" y="449"/>
      <point x="649" y="338" type="curve"/>
      <point x="664" y="311" type="line"/>
      <point x="707" y="416"/>
      <point x="760" y="489"/>
      <point x="833" y="489" type="curve" smooth="yes"/>
      <point x="925" y="489"/>
      <point x="974" y="400"/>
    </contour>
    <contour>
      <point x="29" y="508" type="line"/>
      <point x="29" y="483" type="line"/>
      <point x="350" y="483" type="line"/>
      <point x="350" y="508" type="line"/>
    </contour>
    <contour>
      <point x="293" y="508" type="line"/>
      <point x="293" y="483" type="line"/>
      <point x="542" y="483" type="line"/>
      <point x="542" y="508" type="line"/>
    </contour>
    <contour>
      <point x="680" y="735" type="line"/>
      <point x="597" y="735" type="line"/>
      <point x="642" y="704" type="line"/>
      <point x="642" y="-3" type="line"/>
      <point x="666" y="-3" type="line"/>
      <point x="678" y="127" type="line"/>
      <point x="680" y="142" type="line"/>
    </contour>
    <contour>
      <point x="112" y="62" type="line" smooth="yes"/>
      <point x="112" y="33"/>
      <point x="86" y="26"/>
      <point x="42" y="26" type="curve" smooth="yes"/>
      <point x="33" y="26" type="line"/>
      <point x="33" y="0" type="line"/>
      <point x="234" y="0" type="line"/>
      <point x="234" y="26" type="line"/>
      <point x="225" y="26" type="line" smooth="yes"/>
      <point x="182" y="26"/>
      <point x="150" y="29"/>
      <point x="150" y="36" type="curve"/>
      <point x="150" y="578" type="line" smooth="yes"/>
      <point x="150" y="677"/>
      <point x="181" y="711"/>
      <point x="231" y="711" type="curve" smooth="yes"/>
      <point x="256" y="711"/>
      <point x="277" y="702"/>
      <point x="294" y="694" type="curve"/>
      <point x="294" y="727" type="line"/>
      <point x="280" y="733"/>
      <point x="256" y="737"/>
      <point x="232" y="737" type="curve" smooth="yes"/>
      <point x="164" y="737"/>
      <point x="112" y="690"/>
      <point x="112" y="578" type="curve" smooth="yes"/>
    </contour>
    <contour>
      <point x="501" y="0" type="line"/>
      <point x="501" y="26" type="line"/>
      <point x="490" y="26" type="line" smooth="yes"/>
      <point x="447" y="26"/>
      <point x="415" y="29"/>
      <point x="415" y="36" type="curve" smooth="yes"/>
      <point x="415" y="597" type="line" smooth="yes"/>
      <point x="415" y="696"/>
      <point x="454" y="723"/>
      <point x="528" y="723" type="curve" smooth="yes"/>
      <point x="576" y="723"/>
      <point x="622" y="708"/>
      <point x="660" y="676" type="curve"/>
      <point x="665" y="712" type="line"/>
      <point x="635" y="727"/>
      <point x="590" y="752"/>
      <point x="528" y="752" type="curve" smooth="yes"/>
      <point x="437" y="752"/>
      <point x="377" y="709"/>
      <point x="377" y="597" type="curve"/>
      <point x="377" y="36" type="line"/>
      <point x="377" y="29"/>
      <point x="342" y="26"/>
      <point x="310" y="26" type="curve" smooth="yes"/>
      <point x="297" y="26" type="line"/>
      <point x="297" y="0" type="line"/>
    </contour>
  </outline>
</glyph>
<glyph name="f_j" format="2">
  <advance width="493"/>
  <outline>
    <contour>
      <point x="385" y="659" type="curve" smooth="yes"/>
      <point x="405" y="659"/>
      <point x="420" y="672"/>
      <point x="420" y="698" type="curve" smooth="yes"/>
      <point x="420" y="723"/>
      <point x="405" y="737"/>
      <point x="385" y="737" type="curve" smooth="yes"/>
      <point x="365" y="737"/>
      <point x="351" y="723"/>
      <point x="351" y="698" type="curve" smooth="yes"/>
      <point x="351" y="672"/>
      <point x="365" y="659"/>
    </contour>
    <contour>
      <point x="29" y="483" type="line"/>
      <point x="356" y="483" type="line"/>
      <point x="356" y="508" type="line"/>
      <point x="29" y="508" type="line"/>
    </contour>
    <contour>
      <point x="294" y="-236" type="curve" smooth="yes"/>
      <point x="353" y="-236"/>
      <point x="415" y="-205"/>
      <point x="415" y="-77" type="curve" smooth="yes"/>
      <point x="415" y="508" type="line"/>
      <point x="309" y="508" type="line"/>
      <point x="309" y="483" type="line"/>
      <point x="317" y="483" type="line" smooth="yes"/>
      <point x="359" y="483"/>
      <point x="377" y="469"/>
      <point x="377" y="440" type="curve" smooth="yes"/>
      <point x="377" y="-77" type="line" smooth="yes"/>
      <point x="377" y="-173"/>
      <point x="345" y="-206"/>
      <point x="293" y="-206" type="curve" smooth="yes"/>
      <point x="265" y="-206"/>
      <point x="244" y="-196"/>
      <point x="225" y="-187" type="curve"/>
      <point x="225" y="-220" type="line"/>
      <point x="240" y="-229"/>
      <point x="262" y="-236"/>
    </contour>
    <contour>
      <point x="236" y="0" type="line"/>
      <point x="236" y="26" type="line"/>
      <point x="226" y="26" type="line" smooth="yes"/>
      <point x="183" y="26"/>
      <point x="150" y="29"/>
      <point x="150" y="36" type="curve" smooth="yes"/>
      <point x="150" y="593" type="line" smooth="yes"/>
      <point x="150" y="692"/>
      <point x="179" y="726"/>
      <point x="228" y="726" type="curve" smooth="yes"/>
      <point x="252" y="726"/>
      <point x="272" y="717"/>
      <point x="288" y="709" type="curve"/>
      <point x="288" y="742" type="line"/>
      <point x="275" y="748"/>
      <point x="252" y="752"/>
      <point x="229" y="752" type="curve" smooth="yes"/>
      <point x="163" y="752"/>
      <point x="112" y="705"/>
      <point x="112" y="593" type="curve" smooth="yes"/>
      <point x="112" y="62" type="line" smooth="yes"/>
      <point x="112" y="33"/>
      <point x="86" y="26"/>
      <point x="42" y="26" type="curve" smooth="yes"/>
      <point x="33" y="26" type="line"/>
      <point x="33" y="0" type="line"/>
    </contour>
  </outline>
</glyph>
<glyph name="hungarumlaut.uc" format="2">
  <advance width="403"/>
  <anchor x="216" y="694" name="_top"/>
  <outline>
    <contour>
      <point x="156" y="861" type="curve" smooth="yes"/>
      <point x="131" y="775" type="line"/>
      <point x="131" y="758" type="line"/>
      <point x="147" y="758" type="line"/>
      <point x="194" y="843" type="line" smooth="yes"/>
      <point x="204" y="857"/>
      <point x="214" y="873"/>
      <point x="214" y="887" type="curve" smooth="yes"/>
      <point x="214" y="902"/>
      <point x="204" y="911"/>
      <point x="191" y="911" type="curve" smooth="yes"/>
      <point x="174" y="911"/>
      <point x="167" y="896"/>
    </contour>
    <contour>
      <point x="251" y="861" type="curve" smooth="yes"/>
      <point x="226" y="775" type="line"/>
      <point x="226" y="758" type="line"/>
      <point x="241" y="758" type="line"/>
      <point x="289" y="843" type="line" smooth="yes"/>
      <point x="299" y="857"/>
      <point x="309" y="873"/>
      <point x="309" y="887" type="curve" smooth="yes"/>
      <point x="309" y="902"/>
      <point x="299" y="911"/>
      <point x="286" y="911" type="curve" smooth="yes"/>
      <point x="269" y="911"/>
      <point x="261" y="896"/>
    </contour>
  </outline>
</glyph>
<glyph name="nine.lintab" format="2">
  <advance width="452"/>
  <outline>
    <contour>
      <point x="76" y="14" type="line"/>
      <point x="256" y="30"/>
      <point x="372" y="186"/>
      <point x="372" y="429" type="curve" smooth="yes"/>
      <point x="372" y="604"/>
      <point x="311" y="692"/>
      <point x="221" y="692" type="curve" smooth="yes"/>
      <point x="129" y="692"/>
      <point x="75" y="601"/>
      <point x="75" y="491" type="curve" smooth="yes"/>
      <point x="75" y="385"/>
      <point x="125" y="306"/>
      <point x="210" y="306" type="curve" smooth="yes"/>
      <point x="288" y="306"/>
      <point x="349" y="382"/>
      <point x="384" y="470" type="curve"/>
      <point x="392" y="449" type="line"/>
      <point x="363" y="361"/>
      <point x="293" y="278"/>
      <point x="206" y="278" type="curve" smooth="yes"/>
      <point x="104" y="278"/>
      <point x="35" y="366"/>
      <point x="35" y="491" type="curve" smooth="yes"/>
      <point x="35" y="614"/>
      <point x="112" y="720"/>
      <point x="221" y="720" type="curve" smooth="yes"/>
      <point x="331" y="720"/>
      <point x="412" y="612"/>
      <point x="412" y="429" type="curve" smooth="yes"/>
      <point x="412" y="178"/>
      <point x="281" y="1"/>
      <point x="80" y="-15" type="curve"/>
    </contour>
  </outline>
</glyph>
<glyph name="plus.sub" format="2">
  <advance width="323"/>
  <outline>
    <contour>
      <point x="147" y="226" type="line"/>
      <point x="147" y="-66" type="line"/>
      <point x="174" y="-66" type="line"/>
      <point x="174" y="226" type="line"/>
    </contour>
    <contour>
      <point x="274" y="95" type="line"/>
      <point x="48" y="95" type="line"/>
      <point x="48" y="65" type="line"/>
      <point x="274" y="65" type="line"/>
    </contour>
  </outline>
</glyph>
<glyph name="seven.oldtab" format="2">
  <advance width="452"/>
  <outline>
    <contour>
      <point x="186" y="513" type="line" smooth="yes"/>
      <point x="116" y="513"/>
      <point x="88" y="506"/>
      <point x="85" y="470" type="curve" smooth="yes"/>
      <point x="77" y="380" type="line"/>
      <point x="54" y="380" type="line"/>
      <point x="54" y="548" type="line"/>
      <point x="423" y="548" type="line"/>
      <point x="423" y="513" type="line"/>
      <point x="322" y="345"/>
      <point x="230" y="179"/>
      <point x="208" y="-135" type="curve"/>
      <point x="167" y="-135" type="line"/>
      <point x="191" y="184"/>
      <point x="315" y="372"/>
      <point x="402" y="525" type="curve"/>
      <point x="409" y="513" type="line"/>
    </contour>
  </outline>
</glyph>
<glyph name="three.linprop" format="2">
  <advance width="460"/>
  <outline>
    <contour>
      <point x="227" y="379" type="line"/>
      <point x="367" y="379"/>
      <point x="417" y="298"/>
      <point x="417" y="194" type="curve" smooth="yes"/>
      <point x="417" y="74"/>
      <point x="337" y="-10"/>
      <point x="228" y="-10" type="curve" smooth="yes"/>
      <point x="121" y="-10"/>
      <point x="55" y="61"/>
      <point x="25" y="155" type="curve"/>
      <point x="51" y="171" type="line"/>
      <point x="74" y="100"/>
      <point x="120" y="19"/>
      <point x="228" y="19" type="curve" smooth="yes"/>
      <point x="316" y="19"/>
      <point x="377" y="82"/>
      <point x="377" y="194" type="curve" smooth="yes"/>
      <point x="377" y="294"/>
      <point x="327" y="360"/>
      <point x="219" y="360" type="curve" smooth="yes"/>
      <point x="161" y="360" type="line"/>
      <point x="161" y="388" type="line"/>
      <point x="209" y="388" type="line" smooth="yes"/>
      <point x="293" y="388"/>
      <point x="352" y="439"/>
      <point x="352" y="537" type="curve" smooth="yes"/>
      <point x="352" y="646"/>
      <point x="299" y="689"/>
      <point x="232" y="689" type="curve" smooth="yes"/>
      <point x="163" y="689"/>
      <point x="120" y="653"/>
      <point x="98" y="623" type="curve"/>
      <point x="101" y="647"/>
      <point x="114" y="671"/>
      <point x="118" y="673" type="curve"/>
      <point x="118" y="570" type="line"/>
      <point x="75" y="570" type="line"/>
      <point x="75" y="649" type="line"/>
      <point x="99" y="676"/>
      <point x="149" y="718"/>
      <point x="233" y="718" type="curve" smooth="yes"/>
      <point x="325" y="718"/>
      <point x="392" y="651"/>
      <point x="392" y="549" type="curve" smooth="yes"/>
      <point x="392" y="425"/>
      <point x="305" y="369"/>
      <point x="213" y="369" type="curve"/>
      <point x="255" y="383" type="line"/>
      <point x="255" y="369" type="line"/>
    </contour>
  </outline>
</glyph>
<glyph name="two.linprop" format="2">
  <advance width="459"/>
  <outline>
    <contour>
      <point x="225" y="720" type="curve" smooth="yes"/>
      <point x="330" y="720"/>
      <point x="392" y="655"/>
      <point x="392" y="525" type="curve"/>
      <point x="392" y="346"/>
      <point x="223" y="180"/>
      <point x="67" y="26" type="curve"/>
      <point x="68" y="28"/>
      <point x="66" y="30"/>
      <point x="65" y="33" type="curve"/>
      <point x="273" y="33" type="line" smooth="yes"/>
      <point x="342" y="33"/>
      <point x="370" y="43"/>
      <point x="373" y="79" type="curve" smooth="yes"/>
      <point x="380" y="169" type="line"/>
      <point x="405" y="169" type="line"/>
      <point x="405" y="0" type="line"/>
      <point x="42" y="0" type="line"/>
      <point x="42" y="36" type="line"/>
      <point x="213" y="214"/>
      <point x="352" y="353"/>
      <point x="352" y="530" type="curve"/>
      <point x="352" y="650"/>
      <point x="305" y="692"/>
      <point x="226" y="692" type="curve" smooth="yes"/>
      <point x="158" y="692"/>
      <point x="112" y="662"/>
      <point x="78" y="618" type="curve"/>
      <point x="89" y="650"/>
      <point x="85" y="653"/>
      <point x="104" y="657" type="curve"/>
      <point x="104" y="558" type="line"/>
      <point x="61" y="558" type="line"/>
      <point x="61" y="648" type="line"/>
      <point x="90" y="679"/>
      <point x="146" y="720"/>
    </contour>
  </outline>
</glyph>
<glyph name="whitedownpointingtriangle" format="2">
  <advance width="520"/>
  <outline>
    <contour>
      <point x="45" y="464" type="line"/>
      <point x="259" y="91" type="line"/>
      <point x="476" y="464" type="line"/>
    </contour>
    <contour>
      <point x="256" y="175" type="line"/>
      <point x="265" y="175" type="line"/>
      <point x="119" y="430" type="line"/>
      <point x="113" y="414" type="line"/>
      <point x="408" y="414" type="line"/>
      <point x="402" y="430" type="line"/>
    </contour>
  </outline>
</glyph>
